# xmcd
#
# Track frame offsets:
#	150
#	16587
#	30577
#	43645
#	63792
#	81222
#	94535
#	107245
#	117790
#	133765
#	145175
#	159192
#	175535
#	192812
#	224295
#
# Disc length: 3163 seconds
# Revision: 3
# Processed by: cddbd v1.5.2PL0 Copyright (c) Steve Scherf et al.
# Submitted via: dBpowerAMP V12.0
#
DISCID=b50c590f
DTITLE=Johnny Dyer - Shake it
DYEAR=1995
DGENRE=Blues
TTITLE0=Shake it
TTITLE1=Big Leg Woman
TTITLE2=Holmes Hop
TTITLE3=What's on Your Mind
TTITLE4=Can't You See
TTITLE5=If You Please
TTITLE6=Crazy About That Thing
TTITLE7=I'm Booked
TTITLE8=Tacos de Pescado
TTITLE9=Little Dog
TTITLE10=Hey Little Girl
TTITLE11=Nothing But The Blues
TTITLE12=North of Montana
TTITLE13=Come Back Home
TTITLE14=Don't Have Much Time
EXTD=
EXTT0=
EXTT1=
EXTT2=
EXTT3=
EXTT4=
EXTT5=
EXTT6=
EXTT7=
EXTT8=
EXTT9=
EXTT10=
EXTT11=
EXTT12=
EXTT13=
EXTT14=
PLAYORDER=
